<svg id="visual" viewBox="0 0 900 600" width="900" height="600" xmlns="http://www.w3.org/2000/svg" xmlns:xlink="http://www.w3.org/1999/xlink" version="1.1"><rect x="0" y="0" width="900" height="600" fill="#7e6c5e"></rect><g transform="translate(431.7784397448002 341.44514468961074)"><path d="M190.3 -305.8C272.5 -243.3 382.7 -234.2 449.9 -178.6C517.1 -123 541.1 -20.9 511.6 62.3C482.1 145.4 399 209.6 319.6 246.6C240.3 283.6 164.7 293.4 87.4 331.4C10.2 369.4 -68.6 435.6 -132 427.2C-195.5 418.8 -243.6 335.8 -306.6 264.7C-369.7 193.7 -447.6 134.6 -475.4 57.6C-503.2 -19.4 -480.8 -114.4 -434.7 -191.5C-388.5 -268.6 -318.6 -327.8 -242.2 -392.9C-165.8 -458 -82.9 -529 -14.4 -506.6C54.1 -484.1 108.1 -368.3 190.3 -305.8" fill="#A8A89E"></path></g></svg>