<svg id="visual" viewBox="0 0 900 600" width="900" height="600" xmlns="http://www.w3.org/2000/svg" xmlns:xlink="http://www.w3.org/1999/xlink" version="1.1"><rect x="0" y="0" width="900" height="600" fill="#816a5e"></rect><defs><linearGradient id="grad1_0" x1="33.3%" y1="0%" x2="100%" y2="100%"><stop offset="20%" stop-color="#b3b0ab" stop-opacity="1"></stop><stop offset="80%" stop-color="#b3b0ab" stop-opacity="1"></stop></linearGradient></defs><defs><linearGradient id="grad1_1" x1="33.3%" y1="0%" x2="100%" y2="100%"><stop offset="20%" stop-color="#b3b0ab" stop-opacity="1"></stop><stop offset="80%" stop-color="#816a5e" stop-opacity="1"></stop></linearGradient></defs><defs><linearGradient id="grad2_0" x1="0%" y1="0%" x2="66.7%" y2="100%"><stop offset="20%" stop-color="#b3b0ab" stop-opacity="1"></stop><stop offset="80%" stop-color="#b3b0ab" stop-opacity="1"></stop></linearGradient></defs><defs><linearGradient id="grad2_1" x1="0%" y1="0%" x2="66.7%" y2="100%"><stop offset="20%" stop-color="#816a5e" stop-opacity="1"></stop><stop offset="80%" stop-color="#b3b0ab" stop-opacity="1"></stop></linearGradient></defs><g transform="translate(900, 0)"><path d="M0 324.5C-24.3 291.3 -48.5 258.2 -82.2 253C-115.9 247.8 -158.9 270.6 -190.7 262.5C-222.5 254.4 -243.1 215.4 -246.8 179.3C-250.4 143.1 -237.1 109.8 -247.3 80.3C-257.4 50.9 -291 25.5 -324.5 0L0 0Z" fill="#998d82"></path><path d="M0 162.2C-12.1 145.7 -24.3 129.1 -41.1 126.5C-57.9 123.9 -79.5 135.3 -95.4 131.3C-111.3 127.2 -121.6 107.7 -123.4 89.6C-125.2 71.6 -118.6 54.9 -123.6 40.2C-128.7 25.5 -145.5 12.7 -162.2 0L0 0Z" fill="#b3b0ab"></path></g><g transform="translate(0, 600)"><path d="M0 -324.5C36.1 -324.4 72.1 -324.2 100.3 -308.6C128.4 -293 148.7 -262 174.6 -240.3C200.4 -218.6 231.8 -206.2 252.4 -183.4C273 -160.6 282.7 -127.5 292.9 -95.2C303.1 -62.9 313.8 -31.4 324.5 0L0 0Z" fill="#998d82"></path><path d="M0 -162.2C18 -162.2 36.1 -162.1 50.1 -154.3C64.2 -146.5 74.4 -131 87.3 -120.1C100.2 -109.3 115.9 -103.1 126.2 -91.7C136.5 -80.3 141.4 -63.7 146.5 -47.6C151.6 -31.4 156.9 -15.7 162.2 0L0 0Z" fill="#b3b0ab"></path></g></svg>