<svg id="visual" viewBox="0 0 900 600" width="900" height="600" xmlns="http://www.w3.org/2000/svg" xmlns:xlink="http://www.w3.org/1999/xlink" version="1.1"><rect x="0" y="0" width="900" height="600" fill="#d7d6c6"></rect><defs><linearGradient id="grad1_0" x1="33.3%" y1="0%" x2="100%" y2="100%"><stop offset="20%" stop-color="#b3b0ab" stop-opacity="1"></stop><stop offset="80%" stop-color="#b3b0ab" stop-opacity="1"></stop></linearGradient></defs><defs><linearGradient id="grad1_1" x1="33.3%" y1="0%" x2="100%" y2="100%"><stop offset="20%" stop-color="#b3b0ab" stop-opacity="1"></stop><stop offset="80%" stop-color="#d7d6c6" stop-opacity="1"></stop></linearGradient></defs><defs><linearGradient id="grad2_0" x1="0%" y1="0%" x2="66.7%" y2="100%"><stop offset="20%" stop-color="#b3b0ab" stop-opacity="1"></stop><stop offset="80%" stop-color="#b3b0ab" stop-opacity="1"></stop></linearGradient></defs><defs><linearGradient id="grad2_1" x1="0%" y1="0%" x2="66.7%" y2="100%"><stop offset="20%" stop-color="#d7d6c6" stop-opacity="1"></stop><stop offset="80%" stop-color="#b3b0ab" stop-opacity="1"></stop></linearGradient></defs><g transform="translate(900, 0)"><path d="M0 297.5C-38 288.1 -76 278.7 -108.7 262.4C-141.4 246 -168.9 222.7 -198 198C-227.1 173.2 -258 147.1 -274.8 113.8C-291.7 80.6 -294.6 40.3 -297.5 0L0 0Z" fill="#c6c3b8"></path><path d="M0 148.7C-19 144 -38 139.4 -54.3 131.2C-70.7 123 -84.4 111.4 -99 99C-113.6 86.6 -129 73.5 -137.4 56.9C-145.8 40.3 -147.3 20.1 -148.7 0L0 0Z" fill="#b3b0ab"></path></g><g transform="translate(0, 600)"><path d="M0 -297.5C39.7 -294.6 79.5 -291.7 113.8 -274.8C148.2 -257.9 177.1 -227.1 195.2 -195.2C213.2 -163.2 220.4 -130.3 235.6 -97.6C250.8 -64.9 274.1 -32.4 297.5 0L0 0Z" fill="#c6c3b8"></path><path d="M0 -148.7C19.9 -147.3 39.7 -145.8 56.9 -137.4C74.1 -129 88.6 -113.5 97.6 -97.6C106.6 -81.6 110.2 -65.1 117.8 -48.8C125.4 -32.4 137.1 -16.2 148.7 0L0 0Z" fill="#b3b0ab"></path></g></svg>