<svg id="visual" viewBox="0 0 900 600" width="900" height="600" xmlns="http://www.w3.org/2000/svg" xmlns:xlink="http://www.w3.org/1999/xlink" version="1.1"><rect x="0" y="0" width="900" height="600" fill="#CCCCCC"></rect><defs><linearGradient id="grad1_0" x1="33.3%" y1="100%" x2="100%" y2="0%"><stop offset="20%" stop-color="#9d838e" stop-opacity="1"></stop><stop offset="80%" stop-color="#9d838e" stop-opacity="1"></stop></linearGradient></defs><defs><linearGradient id="grad1_1" x1="33.3%" y1="100%" x2="100%" y2="0%"><stop offset="20%" stop-color="#9d838e" stop-opacity="1"></stop><stop offset="80%" stop-color="#cccccc" stop-opacity="1"></stop></linearGradient></defs><defs><linearGradient id="grad2_0" x1="0%" y1="100%" x2="66.7%" y2="0%"><stop offset="20%" stop-color="#9d838e" stop-opacity="1"></stop><stop offset="80%" stop-color="#9d838e" stop-opacity="1"></stop></linearGradient></defs><defs><linearGradient id="grad2_1" x1="0%" y1="100%" x2="66.7%" y2="0%"><stop offset="20%" stop-color="#cccccc" stop-opacity="1"></stop><stop offset="80%" stop-color="#9d838e" stop-opacity="1"></stop></linearGradient></defs><g transform="translate(900, 600)"><path d="M-297.5 0C-280.1 -35.5 -262.7 -71 -244.8 -101.4C-226.9 -131.8 -208.4 -157.1 -188.1 -188.1C-167.7 -219 -145.5 -255.6 -113.8 -274.8C-82.2 -294 -41.1 -295.7 0 -297.5L0 0Z" fill="#b5a7ac"></path><path d="M-148.7 0C-140 -17.8 -131.4 -35.5 -122.4 -50.7C-113.5 -65.9 -104.2 -78.6 -94 -94C-83.9 -109.5 -72.7 -127.8 -56.9 -137.4C-41.1 -147 -20.5 -147.9 0 -148.7L0 0Z" fill="#9d838e"></path></g><g transform="translate(0, 0)"><path d="M297.5 0C268.9 28.8 240.4 57.7 230 95.3C219.7 132.9 227.6 179.3 210.3 210.3C193.1 241.3 150.6 256.9 111.4 268.8C72.1 280.8 36.1 289.1 0 297.5L0 0Z" fill="#b5a7ac"></path><path d="M148.7 0C134.5 14.4 120.2 28.8 115 47.6C109.9 66.5 113.8 89.7 105.2 105.2C96.5 120.7 75.3 128.4 55.7 134.4C36.1 140.4 18 144.6 0 148.7L0 0Z" fill="#9d838e"></path></g></svg>