<svg id="visual" viewBox="0 0 900 900" width="900" height="900" xmlns="http://www.w3.org/2000/svg" xmlns:xlink="http://www.w3.org/1999/xlink" version="1.1"><rect x="0" y="0" width="900" height="900" fill="#ebe9e2"></rect><g transform="translate(418.5162893102121 400.05338108760463)"><path d="M271.2 -305.4C342.3 -263.6 384.3 -169.4 415.5 -62.9C446.7 43.6 466.9 162.4 423.9 252C380.9 341.6 274.6 402 168.3 423.8C62.1 445.7 -44 429.1 -142.1 392.5C-240.1 355.9 -330.1 299.2 -366.1 219.7C-402.1 140.1 -384.2 37.8 -344.4 -38.6C-304.5 -114.9 -242.6 -165.2 -181.6 -208.7C-120.5 -252.3 -60.3 -289.2 19.9 -312.9C100.1 -336.6 200.1 -347.2 271.2 -305.4" fill="#cfccc5"></path></g></svg>