<svg xmlns="http://www.w3.org/2000/svg" viewBox="0 0 264 343">
    <defs>
        <clipPath id="svgPath">
            <path fill="#fff" stroke="#000" d="M90.77,342.5l15.78-35.9-.59-.13C44.85,292,.5,228.34.5,155,.5,69.81,59.49.5,132,.5S263.5,69.81,263.5,155c0,35.84-10.68,70.76-30.08,98.34-19.12,27.2-45.77,46-75,53l-.59.14,15.82,36Z"/>
            <path d="M132,1c35,0,67.84,16,92.58,45.05S263,113.84,263,155c0,35.74-10.65,70.56-30,98.05-19,27.1-45.59,45.87-74.72,52.85l-1.16.28.48,1.09L172.87,342H91.53l15.23-34.65.49-1.1-1.17-.27c-29.22-6.9-55.85-25.64-75-52.77C11.69,225.69,1,190.81,1,155,1,113.84,14.65,75.14,39.42,46.05S97,1,132,1m0-1C59.1,0,0,69.4,0,155c0,75.09,45.47,137.7,105.85,152L90,343h84.41l-15.89-36.13C218.71,292.45,264,229.94,264,155,264,69.4,204.9,0,132,0Z"/>
        </clipPath>
    </defs>
</svg>